<svg width="151" height="39" viewBox="0 0 151 39" fill="none" xmlns="http://www.w3.org/2000/svg">
<g clip-path="url(#clip0_62_72)">
<mask id="mask0_62_72" style="mask-type:luminance" maskUnits="userSpaceOnUse" x="11" y="-1" width="22" height="15">
<path d="M32.7098 -0.836868H11.7902V13.3616H32.7098V-0.836868Z" fill="white"/>
</mask>
<g mask="url(#mask0_62_72)">
<mask id="mask1_62_72" style="mask-type:luminance" maskUnits="userSpaceOnUse" x="12" y="-1" width="21" height="15">
<path d="M12.2677 7.20689C13.5981 9.10001 14.6429 11.0906 15.3081 13.2641C16.7324 10.0466 19.2994 7.39782 22.4378 5.88251C25.6741 7.39376 28.1431 10.0466 29.5674 13.2641C30.2326 11.0906 31.2815 9.00657 32.6078 7.20689C30.1388 3.79845 26.5229 1.24313 22.3398 -0.178741C18.3485 1.24313 14.8347 3.79845 12.2677 7.20689Z" fill="white"/>
</mask>
<g mask="url(#mask1_62_72)">
<path d="M12.2677 13.2642H32.616V-0.174576H12.2677V13.2642Z" fill="url(#paint0_linear_62_72)"/>
</g>
</g>
<path d="M0.191811 31.8175C0.379541 30.4931 0.379541 29.1647 0.191811 27.9338C2.47314 30.0178 7.701 31.0578 12.1698 31.0578C15.7856 31.0578 17.3079 30.2981 17.3079 28.6934C17.3079 26.6135 15.0225 26.4225 9.60278 25.9513C3.61176 25.476 0 24.5294 0 20.9341C0 17.3388 3.23222 15.73 9.88846 15.73C13.5941 15.73 17.2099 16.2013 20.7278 17.1478C20.5401 18.3788 20.5401 19.6097 20.7278 20.8366C17.2099 19.4188 13.5043 18.5656 9.70073 18.5656C5.89716 18.5656 4.37492 19.3253 4.37492 20.8366C4.37492 22.7297 6.37465 23.2009 11.3168 23.5828C17.5935 24.0541 21.6787 24.9072 21.6787 28.6934C21.6787 32.1953 18.3526 33.8081 11.7902 33.8081C7.79895 33.8081 3.89743 33.1419 0.191811 31.8175Z" fill="#004433"/>
<path d="M29.192 19.3253C29.094 24.0581 29.192 28.8884 29.3797 33.6213H25.1027C25.2905 27.7509 25.2905 21.8806 25.1027 16.1078C27.1025 16.2988 29.094 16.2988 31.0937 16.1078C34.8973 20.9381 38.7947 25.7644 42.884 30.4972C42.9819 25.6669 42.884 20.8447 42.6963 16.1078C44.1206 16.2988 45.6469 16.2988 47.0712 16.1078C46.8794 21.9781 46.8794 27.8484 47.165 33.6213H41.272C37.3664 28.6934 33.3751 23.9606 29.192 19.3253Z" fill="#004433"/>
<path d="M55.6292 30.8709C57.6249 30.9684 59.0492 30.9684 62.0937 30.9684C66.4686 30.9684 67.6113 29.7375 67.6113 28.3156C67.6113 26.8937 66.4727 26.0406 62.2896 26.0406H55.5354C55.5313 27.6534 55.5313 29.3556 55.6292 30.8709ZM62.2814 23.7738C65.2279 23.7738 66.7502 22.9247 66.7502 21.2184C66.7502 19.5122 65.1341 18.7566 62.2814 18.7566H55.5272C55.5272 20.2719 55.4293 21.9781 55.5272 23.7738C57.6208 23.6763 59.9062 23.7738 62.2814 23.7738ZM51.2502 16.0103C54.5763 16.0103 57.6208 15.9128 62.2814 15.9128C67.9868 15.9128 71.121 17.2412 71.121 20.2678C71.121 23.01 68.554 24.1475 65.4157 24.2409V24.5253C69.3172 24.6187 72.2637 25.8497 72.2637 28.8763C72.2637 33.1338 66.2727 33.6091 61.8978 33.6091C56.7638 33.6091 54.5763 33.5156 51.2502 33.5156C51.5359 29.1687 51.5359 20.3653 51.2502 16.0103Z" fill="#004433"/>
<path d="M89.4777 36.4569C89.0982 36.4569 88.7145 36.5503 88.4289 36.8347C88.1473 37.0216 88.0493 37.4034 88.0493 37.7813C88.0493 38.1591 88.1473 38.5369 88.4289 38.7278C88.7145 39.0081 89.0982 39.1056 89.4777 39.1056C89.8572 39.1056 90.2409 39.0081 90.4286 38.7278C90.7143 38.4434 90.902 38.1591 90.8081 37.7813C90.8081 37.4034 90.6204 37.115 90.4286 36.8347C90.2368 36.5503 89.8532 36.4569 89.4777 36.4569Z" fill="#004433"/>
<path d="M85.6741 36.4569C85.2946 36.4569 84.9109 36.5503 84.6253 36.8347C84.3437 37.0216 84.2457 37.4034 84.2457 37.7813C84.2457 38.1591 84.3437 38.5369 84.6253 38.7278C84.9109 39.0081 85.2946 39.1056 85.6741 39.1056C86.0536 39.1056 86.4373 39.0081 86.625 38.7278C86.9107 38.4434 87.0045 38.1591 87.0045 37.7813C87.0045 37.4034 86.9107 37.115 86.625 36.8347C86.3393 36.5503 85.9598 36.4569 85.6741 36.4569Z" fill="#004433"/>
<path d="M119.902 25.8538V31.6306H119.049C116.197 31.6306 115.527 29.64 115.527 28.8844C115.433 27.1781 116.956 25.3825 119.902 25.8538ZM125.514 20.4588C123.898 19.2278 121.902 18.6631 119.906 18.7525C115.152 18.7525 113.63 21.4053 113.348 21.97L115.344 22.8231C116.392 21.4053 118.009 20.6456 119.719 20.8325C124.285 20.8325 124.853 23.7697 124.853 25.2809V30.2981C124.853 31.1513 124.089 31.8134 123.236 31.716H122.286V24.7122C121.237 24.2409 120.098 23.9525 119.053 23.9525C115.817 23.9525 113.25 25.2769 113.25 29.0631C113.25 30.0097 113.63 30.9563 114.201 31.716H108.593V14.5844L106.022 15.5309V29.445C106.022 30.6759 105.549 31.6225 103.076 31.6225H100.125C99.7457 31.6225 99.2723 31.6225 98.4112 30.2941L92.612 20.2638L91.6611 18.655C89.3757 19.9794 87.8575 22.3438 87.6698 24.8991C87.7637 26.3169 88.2371 27.6413 89.0002 28.7828L91 31.6225H83.4867C81.491 31.6225 80.5401 30.5784 80.5401 28.3116C80.634 26.9831 81.0135 25.6588 81.8706 24.6188L80.3483 23.6722C79.2097 25.09 78.5445 26.8938 78.5445 28.7869C78.5445 31.72 80.3483 33.5197 83.6785 33.5197H94.9015L91.4815 28.5959C90.147 26.5159 89.1961 24.6228 91.0081 22.1609C91.959 23.7697 96.4278 31.3422 96.7135 31.72C97.4726 32.9509 98.803 33.6131 100.231 33.5197H103.272C103.843 33.5197 104.41 33.5197 104.986 33.3288C105.365 33.2353 105.749 33.1419 106.124 32.9509V33.4222H124.093C125.901 33.5197 127.517 32.0978 127.615 30.2981V25.0941C127.607 23.4894 126.844 21.6897 125.514 20.4588Z" fill="#004433"/>
<path d="M133.5 18.7566L138.353 16.9609V15.73L135.978 16.5791L135.692 15.9169C135.594 15.6325 135.692 15.3522 136.071 15.1572C136.169 15.0638 136.357 15.0638 136.545 15.0638C136.733 15.0638 136.83 15.1572 136.928 15.2506L137.21 15.4375L137.496 14.3975L137.308 14.3C136.737 13.9222 135.978 13.8288 135.308 14.1131C134.835 14.3 134.357 14.5844 134.17 15.0597C133.982 15.535 133.982 16.0063 134.268 16.4775L134.553 17.1397L134.08 17.3266L133.5 18.7566Z" fill="#004433"/>
<path d="M141.679 29.64C141.585 30.8709 140.54 31.8175 139.304 31.72H137.692V18.4681L135.12 19.4147V31.72H131.794L130.941 33.6131H139.687C141.589 33.6131 144.156 32.0044 144.156 29.4491V14.5884L141.589 15.535V29.6359H141.679V29.64Z" fill="#004433"/>
<path d="M148.527 15.6325V33.5238H151V14.7834L148.527 15.6325Z" fill="#004433"/>
</g>
<defs>
<linearGradient id="paint0_linear_62_72" x1="22.4411" y1="13.2636" x2="22.4411" y2="-0.176043" gradientUnits="userSpaceOnUse">
<stop stop-color="#82C341"/>
<stop offset="0.0078125" stop-color="#82C341"/>
<stop offset="0.0117" stop-color="#81C241"/>
<stop offset="0.0156" stop-color="#80C241"/>
<stop offset="0.0195" stop-color="#80C241"/>
<stop offset="0.0234" stop-color="#7FC141"/>
<stop offset="0.0273" stop-color="#7FC141"/>
<stop offset="0.0312" stop-color="#7EC142"/>
<stop offset="0.0352" stop-color="#7EC042"/>
<stop offset="0.0391" stop-color="#7DC042"/>
<stop offset="0.043" stop-color="#7DC042"/>
<stop offset="0.0469" stop-color="#7CBF42"/>
<stop offset="0.0508" stop-color="#7CBF42"/>
<stop offset="0.0547" stop-color="#7BBF42"/>
<stop offset="0.0586" stop-color="#7BBE42"/>
<stop offset="0.0625" stop-color="#7ABE42"/>
<stop offset="0.0664" stop-color="#7ABE42"/>
<stop offset="0.0703" stop-color="#79BD42"/>
<stop offset="0.0742" stop-color="#79BD42"/>
<stop offset="0.0781" stop-color="#78BD42"/>
<stop offset="0.082" stop-color="#78BC43"/>
<stop offset="0.0859" stop-color="#77BC43"/>
<stop offset="0.0898" stop-color="#77BC43"/>
<stop offset="0.0938" stop-color="#76BB43"/>
<stop offset="0.0977" stop-color="#75BB43"/>
<stop offset="0.1016" stop-color="#75BB43"/>
<stop offset="0.1055" stop-color="#74BA43"/>
<stop offset="0.1094" stop-color="#74BA43"/>
<stop offset="0.1133" stop-color="#73BA43"/>
<stop offset="0.1172" stop-color="#73B943"/>
<stop offset="0.1211" stop-color="#72B943"/>
<stop offset="0.125" stop-color="#72B943"/>
<stop offset="0.1289" stop-color="#71B843"/>
<stop offset="0.1328" stop-color="#71B843"/>
<stop offset="0.1367" stop-color="#70B844"/>
<stop offset="0.1406" stop-color="#70B744"/>
<stop offset="0.1445" stop-color="#6FB744"/>
<stop offset="0.1484" stop-color="#6FB744"/>
<stop offset="0.1523" stop-color="#6EB644"/>
<stop offset="0.1562" stop-color="#6EB644"/>
<stop offset="0.1602" stop-color="#6DB644"/>
<stop offset="0.1641" stop-color="#6DB544"/>
<stop offset="0.168" stop-color="#6CB544"/>
<stop offset="0.1719" stop-color="#6CB544"/>
<stop offset="0.1758" stop-color="#6BB544"/>
<stop offset="0.1797" stop-color="#6BB444"/>
<stop offset="0.1836" stop-color="#6AB444"/>
<stop offset="0.1875" stop-color="#6AB445"/>
<stop offset="0.1914" stop-color="#69B345"/>
<stop offset="0.1953" stop-color="#69B345"/>
<stop offset="0.1992" stop-color="#68B345"/>
<stop offset="0.2031" stop-color="#68B245"/>
<stop offset="0.207" stop-color="#67B245"/>
<stop offset="0.2109" stop-color="#67B245"/>
<stop offset="0.2148" stop-color="#66B145"/>
<stop offset="0.2188" stop-color="#66B145"/>
<stop offset="0.2227" stop-color="#65B145"/>
<stop offset="0.2266" stop-color="#65B045"/>
<stop offset="0.2305" stop-color="#64B045"/>
<stop offset="0.2344" stop-color="#64B045"/>
<stop offset="0.2383" stop-color="#63AF46"/>
<stop offset="0.2422" stop-color="#63AF46"/>
<stop offset="0.2461" stop-color="#62AF46"/>
<stop offset="0.25" stop-color="#62AE46"/>
<stop offset="0.2539" stop-color="#61AE46"/>
<stop offset="0.2578" stop-color="#61AE46"/>
<stop offset="0.2617" stop-color="#60AD46"/>
<stop offset="0.2656" stop-color="#60AD46"/>
<stop offset="0.2695" stop-color="#5FAD46"/>
<stop offset="0.2734" stop-color="#5FAC46"/>
<stop offset="0.2773" stop-color="#5EAC46"/>
<stop offset="0.2812" stop-color="#5EAC46"/>
<stop offset="0.2852" stop-color="#5DAB46"/>
<stop offset="0.2891" stop-color="#5DAB46"/>
<stop offset="0.293" stop-color="#5CAB47"/>
<stop offset="0.2969" stop-color="#5CAA47"/>
<stop offset="0.3008" stop-color="#5BAA47"/>
<stop offset="0.3047" stop-color="#5BAA47"/>
<stop offset="0.3086" stop-color="#5AA947"/>
<stop offset="0.3125" stop-color="#5AA947"/>
<stop offset="0.3164" stop-color="#59A947"/>
<stop offset="0.3203" stop-color="#58A947"/>
<stop offset="0.3242" stop-color="#58A847"/>
<stop offset="0.3281" stop-color="#57A847"/>
<stop offset="0.332" stop-color="#57A847"/>
<stop offset="0.3359" stop-color="#56A747"/>
<stop offset="0.3398" stop-color="#56A747"/>
<stop offset="0.3438" stop-color="#55A748"/>
<stop offset="0.3477" stop-color="#55A648"/>
<stop offset="0.3516" stop-color="#54A648"/>
<stop offset="0.3555" stop-color="#54A648"/>
<stop offset="0.3594" stop-color="#53A548"/>
<stop offset="0.3633" stop-color="#53A548"/>
<stop offset="0.3672" stop-color="#52A548"/>
<stop offset="0.3711" stop-color="#52A448"/>
<stop offset="0.375" stop-color="#51A448"/>
<stop offset="0.3789" stop-color="#51A448"/>
<stop offset="0.3828" stop-color="#50A348"/>
<stop offset="0.3867" stop-color="#50A348"/>
<stop offset="0.3906" stop-color="#4FA348"/>
<stop offset="0.3945" stop-color="#4FA248"/>
<stop offset="0.3984" stop-color="#4EA249"/>
<stop offset="0.4023" stop-color="#4EA249"/>
<stop offset="0.4062" stop-color="#4DA149"/>
<stop offset="0.4102" stop-color="#4DA149"/>
<stop offset="0.4141" stop-color="#4CA149"/>
<stop offset="0.418" stop-color="#4CA049"/>
<stop offset="0.4219" stop-color="#4BA049"/>
<stop offset="0.4258" stop-color="#4BA049"/>
<stop offset="0.4297" stop-color="#4A9F49"/>
<stop offset="0.4336" stop-color="#4A9F49"/>
<stop offset="0.4375" stop-color="#499F49"/>
<stop offset="0.4414" stop-color="#499E49"/>
<stop offset="0.4453" stop-color="#489E49"/>
<stop offset="0.4492" stop-color="#489E4A"/>
<stop offset="0.4531" stop-color="#479D4A"/>
<stop offset="0.457" stop-color="#479D4A"/>
<stop offset="0.4609" stop-color="#469D4A"/>
<stop offset="0.4648" stop-color="#469C4A"/>
<stop offset="0.4688" stop-color="#459C4A"/>
<stop offset="0.4727" stop-color="#459C4A"/>
<stop offset="0.4766" stop-color="#449C4A"/>
<stop offset="0.4805" stop-color="#449B4A"/>
<stop offset="0.4844" stop-color="#439B4A"/>
<stop offset="0.4883" stop-color="#439B4A"/>
<stop offset="0.4922" stop-color="#429A4A"/>
<stop offset="0.4961" stop-color="#429A4A"/>
<stop offset="0.5" stop-color="#419A4A"/>
<stop offset="0.5039" stop-color="#41994B"/>
<stop offset="0.5078" stop-color="#40994B"/>
<stop offset="0.5117" stop-color="#40994B"/>
<stop offset="0.5156" stop-color="#3F984B"/>
<stop offset="0.5195" stop-color="#3F984B"/>
<stop offset="0.5234" stop-color="#3E984B"/>
<stop offset="0.5273" stop-color="#3E974B"/>
<stop offset="0.5312" stop-color="#3D974B"/>
<stop offset="0.5352" stop-color="#3D974B"/>
<stop offset="0.5391" stop-color="#3C964B"/>
<stop offset="0.543" stop-color="#3C964B"/>
<stop offset="0.5469" stop-color="#3B964B"/>
<stop offset="0.5508" stop-color="#3A954B"/>
<stop offset="0.5547" stop-color="#3A954C"/>
<stop offset="0.5586" stop-color="#39954C"/>
<stop offset="0.5625" stop-color="#39944C"/>
<stop offset="0.5664" stop-color="#38944C"/>
<stop offset="0.5703" stop-color="#38944C"/>
<stop offset="0.5742" stop-color="#37934C"/>
<stop offset="0.5781" stop-color="#37934C"/>
<stop offset="0.582" stop-color="#36934C"/>
<stop offset="0.5859" stop-color="#36924C"/>
<stop offset="0.5898" stop-color="#35924C"/>
<stop offset="0.5938" stop-color="#35924C"/>
<stop offset="0.5977" stop-color="#34914C"/>
<stop offset="0.6016" stop-color="#34914C"/>
<stop offset="0.6055" stop-color="#33914C"/>
<stop offset="0.6094" stop-color="#33904D"/>
<stop offset="0.6133" stop-color="#32904D"/>
<stop offset="0.6172" stop-color="#32904D"/>
<stop offset="0.6211" stop-color="#318F4D"/>
<stop offset="0.625" stop-color="#318F4D"/>
<stop offset="0.6289" stop-color="#308F4D"/>
<stop offset="0.6328" stop-color="#308F4D"/>
<stop offset="0.6367" stop-color="#2F8E4D"/>
<stop offset="0.6406" stop-color="#2F8E4D"/>
<stop offset="0.6445" stop-color="#2E8E4D"/>
<stop offset="0.6484" stop-color="#2E8D4D"/>
<stop offset="0.6523" stop-color="#2D8D4D"/>
<stop offset="0.6562" stop-color="#2D8D4D"/>
<stop offset="0.6602" stop-color="#2C8C4E"/>
<stop offset="0.6641" stop-color="#2C8C4E"/>
<stop offset="0.668" stop-color="#2B8C4E"/>
<stop offset="0.6719" stop-color="#2B8B4E"/>
<stop offset="0.6758" stop-color="#2A8B4E"/>
<stop offset="0.6797" stop-color="#2A8B4E"/>
<stop offset="0.6836" stop-color="#298A4E"/>
<stop offset="0.6875" stop-color="#298A4E"/>
<stop offset="0.6914" stop-color="#288A4E"/>
<stop offset="0.6953" stop-color="#28894E"/>
<stop offset="0.6992" stop-color="#27894E"/>
<stop offset="0.7031" stop-color="#27894E"/>
<stop offset="0.707" stop-color="#26884E"/>
<stop offset="0.7109" stop-color="#26884E"/>
<stop offset="0.7148" stop-color="#25884F"/>
<stop offset="0.7188" stop-color="#25874F"/>
<stop offset="0.7227" stop-color="#24874F"/>
<stop offset="0.7266" stop-color="#24874F"/>
<stop offset="0.7305" stop-color="#23864F"/>
<stop offset="0.7344" stop-color="#23864F"/>
<stop offset="0.7383" stop-color="#22864F"/>
<stop offset="0.7422" stop-color="#22854F"/>
<stop offset="0.7461" stop-color="#21854F"/>
<stop offset="0.75" stop-color="#21854F"/>
<stop offset="0.7539" stop-color="#20844F"/>
<stop offset="0.7578" stop-color="#20844F"/>
<stop offset="0.7617" stop-color="#1F844F"/>
<stop offset="0.7656" stop-color="#1F8350"/>
<stop offset="0.7695" stop-color="#1E8350"/>
<stop offset="0.7734" stop-color="#1D8350"/>
<stop offset="0.7773" stop-color="#1D8250"/>
<stop offset="0.7812" stop-color="#1C8250"/>
<stop offset="0.7852" stop-color="#1C8250"/>
<stop offset="0.7891" stop-color="#1B8250"/>
<stop offset="0.793" stop-color="#1B8150"/>
<stop offset="0.7969" stop-color="#1A8150"/>
<stop offset="0.8008" stop-color="#1A8150"/>
<stop offset="0.8047" stop-color="#198050"/>
<stop offset="0.8086" stop-color="#198050"/>
<stop offset="0.8125" stop-color="#188050"/>
<stop offset="0.8164" stop-color="#187F51"/>
<stop offset="0.8203" stop-color="#177F51"/>
<stop offset="0.8242" stop-color="#177F51"/>
<stop offset="0.8281" stop-color="#167E51"/>
<stop offset="0.832" stop-color="#167E51"/>
<stop offset="0.8359" stop-color="#157E51"/>
<stop offset="0.8398" stop-color="#157D51"/>
<stop offset="0.8438" stop-color="#147D51"/>
<stop offset="0.8477" stop-color="#147D51"/>
<stop offset="0.8516" stop-color="#137C51"/>
<stop offset="0.8555" stop-color="#137C51"/>
<stop offset="0.8594" stop-color="#127C51"/>
<stop offset="0.8633" stop-color="#127B51"/>
<stop offset="0.8672" stop-color="#117B51"/>
<stop offset="0.8711" stop-color="#117B52"/>
<stop offset="0.875" stop-color="#107A52"/>
<stop offset="0.8789" stop-color="#107A52"/>
<stop offset="0.8828" stop-color="#0F7A52"/>
<stop offset="0.8867" stop-color="#0F7952"/>
<stop offset="0.8906" stop-color="#0E7952"/>
<stop offset="0.8945" stop-color="#0E7952"/>
<stop offset="0.8984" stop-color="#0D7852"/>
<stop offset="0.9023" stop-color="#0D7852"/>
<stop offset="0.9062" stop-color="#0C7852"/>
<stop offset="0.9102" stop-color="#0C7752"/>
<stop offset="0.9141" stop-color="#0B7752"/>
<stop offset="0.918" stop-color="#0B7752"/>
<stop offset="0.9219" stop-color="#0A7653"/>
<stop offset="0.9258" stop-color="#0A7653"/>
<stop offset="0.9297" stop-color="#097653"/>
<stop offset="0.9336" stop-color="#097653"/>
<stop offset="0.9375" stop-color="#087553"/>
<stop offset="0.9414" stop-color="#087553"/>
<stop offset="0.9453" stop-color="#077553"/>
<stop offset="0.9492" stop-color="#077453"/>
<stop offset="0.9531" stop-color="#067453"/>
<stop offset="0.957" stop-color="#067453"/>
<stop offset="0.9609" stop-color="#057353"/>
<stop offset="0.9648" stop-color="#057353"/>
<stop offset="0.9688" stop-color="#047353"/>
<stop offset="0.9727" stop-color="#047253"/>
<stop offset="0.9766" stop-color="#037254"/>
<stop offset="0.9805" stop-color="#037254"/>
<stop offset="0.9844" stop-color="#027154"/>
<stop offset="0.9883" stop-color="#027154"/>
<stop offset="0.9922" stop-color="#017154"/>
<stop offset="0.9961" stop-color="#007054"/>
<stop offset="1" stop-color="#007054"/>
</linearGradient>
<clipPath id="clip0_62_72">
<rect width="151" height="39" fill="white"/>
</clipPath>
</defs>
</svg>
