<svg width="151" height="54" viewBox="0 0 151 54" fill="none" xmlns="http://www.w3.org/2000/svg">
<g clip-path="url(#clip0_62_123)">
<path d="M138.34 22.5952C140.044 23.5574 141.703 24.4939 143.363 25.4315C144.587 26.1233 145.816 26.8063 147.032 27.5112C149.253 28.798 150.541 30.714 150.967 33.1945C151.014 33.4658 151.015 33.7467 151.016 34.0232C151.019 36.7966 151.028 39.5702 151.014 42.3436C151.004 44.225 150.279 45.8446 149.044 47.2613C148.382 48.0207 147.564 48.581 146.686 49.0735C144.532 50.28 142.383 51.495 140.239 52.7172C138.828 53.5215 137.309 53.8897 135.685 53.8048C134.496 53.7424 133.358 53.4419 132.32 52.8603C129.553 51.3097 126.794 49.7472 124.042 48.1714C123.638 47.9402 123.338 47.894 122.899 48.1475C120.207 49.7015 117.489 51.2122 114.784 52.7446C113.385 53.5372 111.877 53.8876 110.271 53.8053C108.88 53.734 107.609 53.2786 106.411 52.5911C104.229 51.3393 102.018 50.1365 99.8532 48.8579C97.2947 47.3468 95.9159 45.1126 95.8787 42.1613C95.8453 39.5114 95.8723 36.861 95.8716 34.2107C95.871 32.315 96.5392 30.6628 97.7668 29.2157C98.4074 28.4607 99.1943 27.885 100.061 27.3977C102.771 25.8736 105.47 24.3308 108.183 22.8127C108.476 22.6488 108.556 22.4663 108.555 22.158C108.546 19.0147 108.506 15.8707 108.562 12.7283C108.613 9.89742 109.875 7.6492 112.337 6.14793C114.309 4.9455 116.353 3.85534 118.366 2.71912C118.897 2.4199 119.428 2.11938 119.972 1.84605C120.834 1.4135 121.754 1.19232 122.72 1.09819C124.508 0.923615 126.136 1.35802 127.67 2.22979C129.817 3.44923 131.959 4.67513 134.119 5.86961C135.89 6.84882 137.136 8.25319 137.858 10.1092C138.173 10.9212 138.333 11.7682 138.336 12.6338C138.347 15.7771 138.34 18.9204 138.34 22.0637C138.34 22.2316 138.34 22.3999 138.34 22.5952ZM123.42 42.9121C123.483 42.8949 123.5 42.8938 123.513 42.8864C126.233 41.3507 128.972 39.8469 131.663 38.2657C133.149 37.3934 133.935 36.0499 133.936 34.3171C133.938 31.3754 133.932 28.4335 133.943 25.4918C133.944 25.1933 133.854 25.0278 133.583 24.8759C130.981 23.4187 128.399 21.9248 125.787 20.4847C124.214 19.6182 122.596 19.6535 121.029 20.5267C118.464 21.9557 115.916 23.4148 113.353 24.8469C113.057 25.0122 112.943 25.1903 112.944 25.5293C112.959 28.4248 112.955 31.3204 112.952 34.2159C112.95 36.0787 113.818 37.4463 115.422 38.3909C116.135 38.8107 116.863 39.2065 117.583 39.6137C119.527 40.7122 121.471 41.8109 123.42 42.9121ZM108.549 27.5608C108.339 27.6701 108.214 27.7304 108.094 27.7986C106.136 28.9071 104.187 30.0304 102.219 31.1211C100.908 31.8475 100.233 32.9366 100.219 34.3909C100.195 36.9331 100.199 39.4757 100.218 42.018C100.229 43.4225 100.879 44.4968 102.122 45.2043C104.403 46.5024 106.682 47.8043 108.978 49.0774C110.11 49.7047 111.305 49.7309 112.441 49.1097C114.552 47.955 116.634 46.7487 118.726 45.562C118.811 45.5139 118.884 45.4455 118.982 45.3725C118.854 45.2879 118.767 45.2219 118.673 45.1687C116.89 44.1632 115.11 43.1538 113.322 42.1569C111.885 41.3557 110.723 40.2806 109.868 38.893C108.97 37.4352 108.55 35.8472 108.549 34.1491C108.548 32.146 108.549 30.143 108.549 28.1398C108.549 27.9722 108.549 27.8049 108.549 27.5608ZM127.88 45.3737C128.046 45.4823 128.168 45.5724 128.299 45.6467C130.298 46.7755 132.297 47.9032 134.298 49.0289C135.516 49.7143 136.756 49.7235 137.967 49.0494C140.274 47.7662 142.567 46.4593 144.856 45.1465C146.051 44.4609 146.659 43.4048 146.67 42.0587C146.693 39.4868 146.697 36.9144 146.669 34.3428C146.654 32.9471 146.014 31.8756 144.756 31.1705C142.984 30.1781 141.223 29.1686 139.456 28.1686C139.109 27.9717 138.755 27.7849 138.34 27.5589C138.34 27.8004 138.34 27.966 138.34 28.1317C138.34 30.1955 138.345 32.2591 138.336 34.323C138.334 34.7361 138.31 35.1543 138.242 35.5611C137.769 38.3615 136.32 40.5295 133.826 41.9973C132.737 42.6384 131.627 43.2478 130.527 43.8717C129.659 44.3637 128.792 44.8561 127.88 45.3737ZM112.953 20.1025C113.141 20.0098 113.266 19.9557 113.383 19.8894C115.207 18.8642 117.019 17.8171 118.857 16.8157C121.899 15.1576 124.976 15.1748 128.019 16.7952C129.88 17.786 131.692 18.8653 133.526 19.9029C133.642 19.968 133.767 20.0169 133.913 20.0855C133.923 19.9547 133.935 19.8787 133.935 19.8025C133.936 17.3694 133.937 14.9362 133.933 12.5029C133.932 12.3359 133.903 12.1662 133.866 12.0025C133.623 10.9499 132.994 10.1796 132.049 9.64628C129.806 8.38005 127.564 7.1105 125.316 5.85222C124.066 5.15263 122.805 5.16816 121.554 5.86277C120.885 6.23429 120.221 6.61414 119.556 6.99103C117.939 7.90626 116.311 8.80355 114.709 9.74337C113.562 10.4162 112.955 11.4286 112.953 12.7585C112.951 15.0222 112.953 17.286 112.953 19.5499C112.953 19.7132 112.953 19.8767 112.953 20.1025Z" fill="#221AFB"/>
<path d="M26.4472 25.1421C26.435 24.5214 26.4361 23.9232 26.4057 23.3264C26.3918 23.0542 26.3512 22.7733 26.2617 22.5166C25.8882 21.4453 24.6887 21.0673 23.7377 21.7066C23.6354 21.7754 23.539 21.8525 23.4059 21.9507C22.9752 21.6012 22.5441 21.2517 22.0867 20.8807C22.5956 20.3246 23.2179 20.0365 23.9214 19.905C24.7419 19.7515 25.549 19.8149 26.3106 20.1618C27.4425 20.6773 28.0669 21.5762 28.2257 22.7722C28.2961 23.3031 28.2862 23.8451 28.2961 24.3824C28.3081 25.0464 28.404 25.1513 29.082 25.1785C29.1437 25.1809 29.2051 25.1927 29.3217 25.2068C29.3266 25.4477 29.3336 25.6885 29.3361 25.9293C29.3385 26.1743 29.3366 26.4194 29.3366 26.6555C28.9891 26.7683 11.7816 26.8103 10.9484 26.7029C10.9484 24.9606 10.9484 23.2114 10.9484 21.4762C9.53789 21.0665 8.41652 21.8506 8.38953 23.24C8.37009 24.2413 8.38632 25.2432 8.38444 26.2448C8.38406 26.3953 8.37141 26.5461 8.36311 26.7262C8.18323 26.7345 8.03034 26.7476 7.87746 26.7476C6.38331 26.7491 4.88916 26.7491 3.39502 26.7484C1.50884 26.7474 0.0686785 25.3231 0.0163947 23.427C-0.00738779 22.5661 0.21043 21.7841 0.750821 21.097C0.788949 21.0486 0.83104 21.0025 0.875773 20.9598C0.897291 20.9393 0.92919 20.9295 1.00733 20.8872C1.42032 21.2206 1.84972 21.5675 2.27894 21.9141C2.15701 22.2238 1.99695 22.511 1.93296 22.8173C1.77611 23.5672 1.89918 24.274 2.5111 24.8023C2.72213 24.9845 3.03092 25.147 3.3014 25.1576C4.35179 25.1983 5.40483 25.1742 6.51015 25.1742C6.51732 24.9893 6.52468 24.8266 6.52978 24.6638C6.55092 23.9727 6.50392 23.272 6.60547 22.5928C6.82989 21.0917 8.03393 19.9956 9.56734 19.8856C10.5677 19.8138 11.5751 19.8356 12.5794 19.8184C12.6383 19.8175 12.6978 19.8419 12.8061 19.865C12.8061 21.6187 12.8061 23.3671 12.8061 25.1458C14.9252 25.1458 16.9914 25.1458 19.0934 25.1458C19.056 24.3896 19.0496 23.6402 18.9737 22.8975C18.9005 22.18 18.4052 21.5413 17.5282 21.4127C17.1002 21.35 16.7208 21.4586 16.3691 21.6849C16.2647 21.7521 16.1738 21.839 16.0273 21.9564C15.5943 21.6056 15.1553 21.2496 14.6998 20.8805C15.1919 20.3412 15.7768 20.0498 16.4333 19.9203C17.5196 19.7062 18.5607 19.8293 19.4841 20.4809C20.3874 21.1183 20.8178 22.0128 20.8706 23.0856C20.8942 23.5622 20.8665 24.041 20.8776 24.5185C20.8876 24.9403 21.0979 25.1707 21.4977 25.1726C23.1018 25.18 24.7062 25.1752 26.3104 25.1724C26.3697 25.1726 26.4291 25.1463 26.4472 25.1421Z" fill="#221AFB"/>
<path d="M76.1513 25.0627C76.5103 25.197 78.0772 25.2264 78.6746 25.1202C78.6183 24.9901 78.5604 24.8671 78.5111 24.741C78.0232 23.4916 78.1155 22.3015 78.8965 21.1845C79.2544 20.6728 79.7455 20.3194 80.3267 20.0953C81.2351 19.745 82.167 19.7197 83.0839 20.0415C84.231 20.4439 84.9737 21.2332 85.237 22.411C85.4913 23.5487 85.335 24.617 84.5683 25.5474C83.9405 26.3092 83.1062 26.7227 82.1177 26.7395C80.3103 26.7702 78.5017 26.7467 76.6936 26.7495C76.2389 26.7502 75.8797 26.5611 75.5766 26.2461C75.5128 26.1799 75.4515 26.1113 75.3505 26.0022C74.6091 26.7687 73.6576 26.7637 72.684 26.7554C70.2786 26.7345 67.873 26.7469 65.4673 26.7504C65.1232 26.751 64.7816 26.7663 64.4941 26.5113C64.1299 28.6269 63.1 29.5556 60.9238 29.7324C60.9238 29.2457 60.9238 28.7601 60.9238 28.2421C61.0004 28.2132 61.0963 28.1644 61.1982 28.1407C62.0542 27.9419 62.5613 27.3413 62.5859 26.461C62.601 25.9223 62.5891 25.3827 62.5891 24.8436C62.5891 23.565 62.5891 22.2864 62.5891 21.0079C62.5891 20.8426 62.5891 20.6773 62.5891 20.4877C63.2337 20.4877 63.8226 20.4877 64.476 20.4877C64.476 20.6664 64.476 20.8298 64.476 20.9935C64.476 22.1643 64.4758 23.3349 64.4764 24.5057C64.4764 24.6135 64.4692 24.7228 64.4845 24.8286C64.5142 25.0319 64.6172 25.1741 64.8501 25.1746C65.4915 25.1757 66.1331 25.175 66.8201 25.175C66.8201 23.6672 66.8201 22.1956 66.8201 20.6688C67.402 20.6292 67.94 20.6431 68.526 20.6593C68.526 21.1788 68.526 21.6631 68.526 22.2172C68.8095 22.0883 68.949 21.9026 69.1006 21.744C69.6142 21.2062 70.2195 20.7956 70.9098 20.5203C72.1123 20.0405 73.3426 19.92 74.5568 20.4566C75.6734 20.9502 76.2701 21.841 76.4675 23.02C76.5706 23.6358 76.4739 24.2087 76.2435 24.7748C76.2089 24.8591 76.1874 24.9481 76.1513 25.0627ZM68.902 25.1141C68.943 25.138 68.9679 25.1656 68.993 25.1656C70.4064 25.17 71.8203 25.1909 73.2333 25.1669C73.9326 25.155 74.4256 24.7036 74.5864 24.028C74.7293 23.4281 74.6162 22.8648 74.2723 22.3566C73.9292 21.8495 73.3997 21.6446 72.8099 21.6785C72.1429 21.7168 71.53 21.962 70.9845 22.3496C70.0425 23.0189 69.4277 23.9376 68.9317 24.9453C68.9064 24.9965 68.9105 25.0618 68.902 25.1141ZM80.1104 23.2783C80.1102 23.7782 80.1972 24.0954 80.3777 24.4297C80.9133 25.4215 82.5264 25.4124 83.0849 24.5679C83.5796 23.8198 83.6385 23.0475 83.2299 22.2594C82.7212 21.2785 81.3978 21.1015 80.6094 21.8884C80.2202 22.2771 80.0881 22.7502 80.1104 23.2783Z" fill="#221AFB"/>
<path d="M49.0452 20.8541C49.5219 21.2383 49.943 21.5779 50.3743 21.9254C50.2766 22.1362 50.1699 22.3224 50.1012 22.5212C49.8122 23.3578 49.9045 24.1394 50.5652 24.7748C50.7643 24.9664 51.0746 25.1374 51.3436 25.1524C52.2005 25.2001 53.0619 25.1702 53.9672 25.1702C53.9002 25.01 53.85 24.9013 53.8084 24.7892C53.2869 23.3839 53.3938 22.0694 54.424 20.9042C54.8685 20.4013 55.4425 20.0925 56.1052 19.9501C57.3515 19.6821 58.5053 19.8469 59.5002 20.6854C60.0276 21.1298 60.3694 21.6979 60.5206 22.3588C60.7828 23.5063 60.6433 24.5889 59.8703 25.5343C59.2461 26.2977 58.4175 26.7251 57.4266 26.7393C55.383 26.7685 53.3385 26.7698 51.2949 26.7413C49.642 26.7182 48.2173 25.3283 48.1201 23.7103C48.0693 22.8641 48.1586 22.0478 48.669 21.3265C48.7745 21.1771 48.897 21.039 49.0452 20.8541ZM55.3839 23.3022C55.3511 23.685 55.4693 24.08 55.6865 24.4451C56.1897 25.2904 57.4457 25.459 58.169 24.7846C58.8666 24.1342 58.9927 22.9025 58.4423 22.1136C58.0419 21.5398 57.3687 21.2864 56.6786 21.4499C55.8768 21.64 55.3894 22.3198 55.3839 23.3022Z" fill="#221AFB"/>
<path d="M51.9393 42.6449C51.9036 42.7642 51.8743 42.8615 51.843 42.9661C51.2394 42.9661 50.649 42.9661 50.0319 42.9661C50.0319 39.4661 50.0319 35.992 50.0319 32.4844C50.6395 32.4844 51.2403 32.4844 51.8915 32.4844C51.8915 33.7584 51.8915 35.012 51.8915 36.3256C52.0217 36.2601 52.0914 36.2337 52.1516 36.1936C53.2888 35.4348 54.9315 35.6482 55.9532 36.4075C57.0066 37.1905 57.5714 38.2293 57.5531 39.5401C57.5261 41.4776 56.0753 42.8677 54.557 43.1455C53.7522 43.2929 52.9602 43.2615 52.2411 42.8021C52.151 42.7448 52.0506 42.7024 51.9393 42.6449ZM55.6814 39.2695C55.6227 39.0803 55.5595 38.6942 55.389 38.3606C54.7867 37.1826 53.155 37.0872 52.4221 37.9478C51.7892 38.6909 51.7046 39.5199 52.0317 40.4024C52.5419 41.7792 54.2601 41.811 55.0214 41.0878C55.4872 40.6452 55.6542 40.0814 55.6814 39.2695Z" fill="#221AFB"/>
<path d="M37.9032 25.1761C38.5112 25.1761 39.108 25.1753 39.705 25.1763C40.0676 25.1768 40.3105 25.0013 40.4019 24.6679C40.4661 24.434 40.4999 24.1849 40.5008 23.9424C40.5084 21.9085 40.5051 19.8746 40.5051 17.841C40.5051 17.6749 40.5051 17.5088 40.5051 17.3156C41.1114 17.3156 41.6695 17.3156 42.2611 17.3156C42.2732 17.4319 42.2958 17.5489 42.296 17.6662C42.2981 19.8541 42.2987 22.042 42.2968 24.23C42.2964 24.6788 42.2473 25.1228 42.0535 25.536C41.6899 26.3112 41.0499 26.7038 40.1962 26.7426C39.5842 26.7706 38.9693 26.7611 38.3568 26.741C38.1462 26.7341 37.9383 26.6448 37.6981 26.5856C37.5608 27.5236 37.2164 28.3728 36.4251 28.9977C35.7592 29.5238 34.9889 29.7178 34.1212 29.745C34.1212 29.2488 34.1212 28.7628 34.1212 28.2417C34.2307 28.2097 34.3593 28.1636 34.4918 28.1346C35.1003 28.0007 35.4976 27.6281 35.6733 27.0591C35.7762 26.7262 35.8381 26.3683 35.8415 26.021C35.8585 24.3572 35.8491 22.693 35.8491 21.029C35.8491 20.8614 35.8491 20.6939 35.8491 20.4936C36.457 20.4936 37.0297 20.4936 37.6497 20.4936C37.6577 20.6588 37.672 20.8224 37.6722 20.9861C37.6741 22.1417 37.6745 23.2974 37.6724 24.4528C37.6718 24.7023 37.6713 24.9482 37.9032 25.1761Z" fill="#221AFB"/>
<path d="M64.1133 36.3284C64.1463 36.2025 64.172 36.1046 64.2033 35.9859C64.7929 35.9859 65.3839 35.9859 65.9698 35.9859C66.0693 36.343 66.1089 41.902 66.0189 42.9693C65.7218 42.9767 65.4164 42.987 65.1108 42.9909C64.8135 42.9946 64.5161 42.9917 64.212 42.9917C64.1803 42.8679 64.1548 42.7683 64.1268 42.6595C64.0744 42.6677 64.0202 42.6606 63.9875 42.6834C61.8082 44.1948 58.4989 42.4343 58.4927 39.5436C58.4894 38.0521 59.104 36.9172 60.4215 36.1978C61.5785 35.5659 62.7726 35.498 63.9368 36.2335C63.9853 36.265 64.0389 36.289 64.1133 36.3284ZM60.3398 39.4682C60.356 39.4713 60.3722 39.4744 60.3883 39.4778C60.3883 39.5854 60.3815 39.6936 60.3894 39.8007C60.4509 40.6271 61.0204 41.3073 61.8101 41.5015C62.6295 41.7029 63.4506 41.3916 63.8775 40.6732C64.2524 40.0426 64.2801 39.3602 64.064 38.668C63.8316 37.9234 63.1325 37.4017 62.3518 37.3825C61.5019 37.3616 60.8073 37.8038 60.534 38.5764C60.4332 38.8614 60.4024 39.1702 60.3398 39.4682Z" fill="#221AFB"/>
<path d="M7.71305 36.348C7.74363 36.2121 7.7659 36.1131 7.79346 35.9902C8.37821 35.9902 8.96786 35.9902 9.58489 35.9902C9.58489 38.3181 9.58489 40.6208 9.58489 42.958C8.9992 42.958 8.42502 42.958 7.81517 42.958C7.78497 42.8707 7.74741 42.7618 7.69305 42.6046C6.704 43.3303 5.61963 43.3885 4.51468 42.997C3.39898 42.6016 2.637 41.8025 2.27856 40.7096C1.78744 39.2122 2.08358 37.8419 3.24798 36.7234C3.84406 36.1509 4.5883 35.8452 5.43427 35.746C6.27704 35.6471 7.00807 35.8803 7.71305 36.348ZM7.81573 39.4894C7.73363 39.1495 7.69021 38.7948 7.5613 38.4729C7.29648 37.811 6.75043 37.4611 6.04752 37.3917C5.36595 37.3244 4.77327 37.546 4.36935 38.1156C3.87482 38.8128 3.83084 39.5728 4.11529 40.3573C4.36425 41.0434 4.87312 41.4462 5.60396 41.5338C6.40577 41.63 7.05847 41.362 7.47466 40.653C7.6821 40.2994 7.77949 39.9138 7.81573 39.4894Z" fill="#221AFB"/>
<path d="M25.465 36.2653C25.4841 36.1934 25.5069 36.1076 25.5375 35.9933C26.1198 35.9933 26.7104 35.9933 27.3027 35.9933C27.4048 36.298 27.4422 42.2573 27.3406 42.9613C26.7562 42.9613 26.1664 42.9613 25.5488 42.9613C25.5209 42.87 25.4905 42.7716 25.4569 42.6619C25.4157 42.6695 25.3642 42.6647 25.3327 42.6871C23.4742 44.0047 20.4212 42.8611 19.914 40.2119C19.6566 38.8673 19.9948 37.6658 21.0316 36.723C21.9463 35.8914 23.0467 35.5465 24.2868 35.8085C24.6766 35.8908 25.0392 36.0963 25.465 36.2653ZM23.6439 41.5433C24.4888 41.5431 25.1111 41.1044 25.3959 40.3296C25.6066 39.7563 25.6071 39.1913 25.3987 38.6186C25.1424 37.9138 24.6341 37.4829 23.8882 37.3975C23.1368 37.3115 22.4952 37.555 22.07 38.2158C21.7729 38.6776 21.6738 39.1898 21.7313 39.7178C21.8727 41.0168 22.7511 41.574 23.6439 41.5433Z" fill="#221AFB"/>
<path d="M33.1409 32.4698C33.7371 32.4698 34.2987 32.4698 34.9278 32.4698C34.9306 33.0982 34.9346 33.7223 34.9361 34.3467C34.9376 34.9619 34.9365 35.577 34.9365 36.2437C35.0644 36.1843 35.1622 36.1527 35.2445 36.0987C36.5858 35.219 38.9827 35.9267 39.4291 37.7764C39.5295 38.1923 39.606 38.6234 39.6148 39.0491C39.6396 40.25 39.6239 41.4519 39.6226 42.6534C39.6224 42.7437 39.6092 42.8337 39.5993 42.9574C38.9969 42.9574 38.4083 42.9574 37.7628 42.9574C37.7543 42.8056 37.7381 42.6442 37.7377 42.4827C37.7354 41.3581 37.7424 40.2338 37.7322 39.1094C37.7298 38.8351 37.6958 38.557 37.6384 38.2883C37.5306 37.7838 37.1969 37.4901 36.6801 37.3977C35.8753 37.2534 35.1901 37.6943 35.0376 38.4771C34.9763 38.792 34.9444 39.1168 34.9406 39.4376C34.9285 40.4542 34.9361 41.471 34.9361 42.4875C34.9361 42.6377 34.9361 42.7877 34.9361 42.965C34.3143 42.965 33.7419 42.965 33.1407 42.965C33.1409 39.4693 33.1409 35.9951 33.1409 32.4698Z" fill="#221AFB"/>
<path d="M76.2706 32.4694C76.8673 32.4694 77.429 32.4694 78.057 32.4694C78.0598 33.1148 78.0638 33.7549 78.0653 34.3947C78.0668 35.0572 78.0657 35.7198 78.0657 36.3822C78.0657 37.0272 78.0657 37.6725 78.0657 38.4037C78.2123 38.2972 78.3112 38.2417 78.3894 38.1659C79.0149 37.5586 79.6446 36.9549 80.2555 36.3339C80.5119 36.0734 80.7803 35.938 81.1636 35.9569C81.7716 35.987 82.3824 35.9648 83.0383 36.0471C82.0473 36.9938 81.0564 37.9403 80.0351 38.916C81.1093 40.2536 82.1721 41.5773 83.3082 42.9922C82.8344 42.9922 82.466 42.9965 82.0975 42.9909C81.7376 42.9856 81.3308 43.0684 81.0319 42.9306C80.751 42.8012 80.5815 42.4363 80.368 42.1711C79.8348 41.5078 79.3044 40.8422 78.7465 40.1443C78.537 40.3453 78.3305 40.5127 78.1674 40.7137C78.0904 40.8085 78.073 40.9678 78.07 41.0989C78.0589 41.5608 78.0657 42.0232 78.0657 42.4855C78.0657 42.6358 78.0657 42.7862 78.0657 42.9641C77.445 42.9641 76.8726 42.9641 76.2706 42.9641C76.2706 39.4695 76.2706 35.995 76.2706 32.4694Z" fill="#221AFB"/>
<path d="M67.9084 35.9668C68.4624 35.9668 68.9939 35.9559 69.5241 35.9765C69.6229 35.9803 69.7167 36.11 69.7931 36.1669C70.1497 36.0423 70.519 35.8725 70.9075 35.7845C72.1672 35.4993 74.0153 36.2773 74.2839 38.101C74.3152 38.3133 74.3582 38.5267 74.3599 38.7399C74.3705 40.1099 74.3714 41.48 74.3737 42.8502C74.3737 42.8779 74.3524 42.9058 74.329 42.9628C73.7514 42.9628 73.1619 42.9628 72.5207 42.9628C72.5132 42.7962 72.4996 42.6331 72.4992 42.4701C72.4973 41.3304 72.5055 40.1907 72.4932 39.0511C72.49 38.7623 72.4511 38.4677 72.3816 38.1869C72.2812 37.7812 72.0026 37.5365 71.5793 37.4335C70.7072 37.2214 70.0062 37.6292 69.8248 38.491C69.7652 38.7745 69.7363 39.0689 69.7333 39.3587C69.7225 40.3904 69.7291 41.4225 69.7291 42.4544C69.7291 42.6072 69.7291 42.7599 69.7291 42.9524C69.1157 42.9524 68.5298 42.9524 67.9084 42.9524C67.9084 40.65 67.9084 38.3486 67.9084 35.9668Z" fill="#221AFB"/>
<path d="M27.6584 46.6736C27.6584 46.1403 27.6584 45.6528 27.6584 45.2328C28.0324 45.054 28.3999 44.9423 28.6868 44.7274C29.2262 44.3232 29.3706 43.7249 29.3698 43.0825C29.3672 40.8977 29.3689 38.7127 29.3689 36.5279C29.3689 36.3615 29.3689 36.1951 29.3689 35.9975C29.9965 35.9975 30.5824 35.9975 31.1977 35.9975C31.2071 36.146 31.223 36.2803 31.2232 36.4146C31.2247 38.7379 31.2371 41.0613 31.22 43.3844C31.2077 45.0433 29.8734 46.5028 28.0341 46.6879C27.9272 46.6986 27.8178 46.6805 27.6584 46.6736Z" fill="#221AFB"/>
<path d="M11.4675 32.4511C11.9201 32.4511 12.3416 32.4511 12.7629 32.4511C12.9322 32.4511 13.1015 32.4511 13.2967 32.4511C13.2967 35.9685 13.2967 39.4412 13.2967 42.9528C12.6972 42.9528 12.0975 42.9528 11.4675 42.9528C11.4675 39.4715 11.4675 36.0003 11.4675 32.4511Z" fill="#221AFB"/>
<path d="M43.9361 17.3041C44.5491 17.3041 45.1286 17.3041 45.7073 17.3041C45.809 17.6222 45.8387 26.0887 45.7328 26.7487C45.4489 26.7487 45.1546 26.7487 44.8604 26.7487C44.5635 26.7487 44.2664 26.7487 43.9361 26.7487C43.9361 23.5949 43.9361 20.4762 43.9361 17.3041Z" fill="#221AFB"/>
<path d="M33.3944 26.7282C32.8055 26.7282 32.2441 26.7282 31.6828 26.7282C31.5833 26.4138 31.5499 18.0109 31.6494 17.3156C32.2173 17.3156 32.7898 17.3156 33.3946 17.3156C33.3944 20.4405 33.3944 23.5577 33.3944 26.7282Z" fill="#221AFB"/>
<path d="M16.9106 42.9981C16.2704 42.9981 15.6817 42.9981 15.0552 42.9981C15.0437 42.8469 15.0252 42.7135 15.025 42.58C15.0228 41.3491 15.008 40.1178 15.0322 38.8875C15.0405 38.4631 15.1009 38.0272 15.2206 37.6201C15.4799 36.7375 16.0956 36.1801 17.0107 35.9665C17.7311 35.7984 18.459 35.7283 19.2145 35.9077C19.2145 36.4003 19.2145 36.8871 19.2145 37.4282C18.9892 37.4337 18.7755 37.4374 18.562 37.4446C18.3584 37.4517 18.1534 37.4506 17.9514 37.4739C17.2402 37.5561 16.9163 37.9181 16.9123 38.6491C16.9061 39.8338 16.9106 41.0186 16.9106 42.2033C16.9106 42.4605 16.9106 42.718 16.9106 42.9981Z" fill="#221AFB"/>
<path d="M41.4991 35.9918C42.1018 35.9918 42.6775 35.9918 43.2783 35.9918C43.2783 38.3219 43.2783 40.6249 43.2783 42.96C42.685 42.96 42.1103 42.96 41.5323 42.96C41.4287 42.6567 41.3936 36.7034 41.4991 35.9918Z" fill="#221AFB"/>
<path d="M42.3798 34.7006C41.6852 34.7001 41.2226 34.2518 41.2288 33.5851C41.2347 32.9656 41.7313 32.496 42.3685 32.4787C42.9546 32.4628 43.5425 32.9589 43.5437 33.5964C43.5446 34.1663 43.0068 34.7947 42.3798 34.7006Z" fill="#221AFB"/>
<path d="M30.3091 34.7006C29.6462 34.7972 29.109 34.1186 29.1411 33.5981C29.1794 32.9745 29.6417 32.4907 30.2747 32.482C30.9565 32.4726 31.441 32.9297 31.4442 33.5853C31.4476 34.2808 31.0226 34.6986 30.3091 34.7006Z" fill="#221AFB"/>
<path d="M3.53847 30.3545C2.9105 30.3536 2.4692 29.9236 2.47203 29.3154C2.47486 28.7098 2.92163 28.2859 3.55262 28.2903C4.13057 28.2944 4.60075 28.7458 4.60981 29.3056C4.61906 29.8791 4.13246 30.3555 3.53847 30.3545Z" fill="#221AFB"/>
<path d="M7.6302 29.3049C7.63794 29.9018 7.18475 30.3509 6.57112 30.3546C5.97146 30.3583 5.48921 29.8944 5.49242 29.3171C5.49544 28.7588 5.96165 28.2998 6.53526 28.2905C7.1553 28.2805 7.62265 28.7135 7.6302 29.3049Z" fill="#221AFB"/>
<path d="M54.0942 18.5792C54.0808 19.1849 53.6469 19.5564 52.9761 19.536C52.3894 19.5185 51.9653 19.065 51.9876 18.4795C52.0093 17.9123 52.4802 17.4755 53.0565 17.4704C53.6435 17.4652 54.1625 17.9528 54.0942 18.5792Z" fill="#221AFB"/>
<path d="M26.1594 29.3165C26.2425 29.8689 25.6539 30.4 25.1145 30.3629C24.5143 30.3216 24.0473 29.8902 24.053 29.3038C24.0584 28.7384 24.5169 28.3247 25.1026 28.2827C25.6949 28.2404 26.2442 28.817 26.1594 29.3165Z" fill="#221AFB"/>
</g>
<defs>
<clipPath id="clip0_62_123">
<rect width="151" height="54" fill="white"/>
</clipPath>
</defs>
</svg>
